<svg width="141" height="63" viewBox="0 0 141 63" fill="none" xmlns="http://www.w3.org/2000/svg">
<path d="M69.9308 30.7842H64.9124L64.1619 32.4149H60.9727V31.9353L66.6946 19.2734H68.1016L73.8236 31.9353V32.4149H70.6343L69.9308 30.7842ZM67.445 24.5492L65.9911 27.9545H68.899L67.445 24.5492Z" fill="white"/>
<path d="M77.8572 32.4149H74.668V31.9353L80.3899 19.2734H81.7969L87.5189 31.9353V32.4149H84.3296L81.0465 24.837L77.8572 32.4149Z" fill="white"/>
<path d="M92.4432 23.3506H94.7883C100.839 23.3506 100.839 32.4154 94.7883 32.4633C92.9122 32.4633 91.0362 32.4633 89.207 32.4633C89.207 28.1468 89.207 23.8302 89.207 19.5137C90.2858 19.5137 91.3645 19.5137 92.4432 19.5137V23.3506ZM92.4432 26.3242C92.4432 27.3794 92.4432 28.4345 92.4432 29.4897C93.1936 29.4897 93.991 29.4897 94.7414 29.4897C96.6174 29.4897 96.5236 26.3242 94.7414 26.3242H92.4432Z" fill="white"/>
<path d="M102.997 27.8581C99.8082 25.6519 100.699 19.5128 105.671 19.4648C107.5 19.4648 109.423 19.4648 111.252 19.4648C111.252 23.7814 111.252 28.0979 111.252 32.4145C110.22 32.4145 109.095 32.4145 108.016 32.4145V28.6255H106.327L104.123 32.4145H100.512V31.9349L102.997 27.8581ZM107.969 25.6519C107.969 24.5967 107.969 23.4936 107.969 22.4385C107.219 22.4385 106.421 22.4385 105.671 22.4385C103.842 22.4385 103.936 25.6519 105.671 25.6519H107.969Z" fill="white"/>
<path d="M125.041 32.4145C123.915 32.4145 122.837 32.4145 121.711 32.4145V27.2346H117.818V32.4145C116.693 32.4145 115.614 32.4145 114.488 32.4145V19.4648C115.567 19.4648 116.693 19.4648 117.818 19.4648V24.1651H121.711V19.4648C122.837 19.4648 123.915 19.4648 125.041 19.4648V32.4145Z" fill="white"/>
<path d="M133.998 19.3223C136.624 19.3223 139.485 20.7611 139.954 24.2623C138.829 24.2623 137.891 24.2623 136.765 24.2623C136.296 22.9673 135.358 22.3438 133.998 22.3438C132.075 22.3438 130.855 23.7827 130.855 25.941C130.855 27.8594 132.075 29.5381 133.998 29.5381C135.358 29.5381 136.484 28.8187 136.812 27.4278C137.891 27.4278 138.876 27.4278 140.001 27.4278C139.532 31.0729 136.671 32.5597 133.998 32.5597C130.762 32.5597 127.525 30.3534 127.479 25.941C127.525 21.5285 130.808 19.3223 133.998 19.3223Z" fill="white"/>
<path d="M79.8266 36.7793C81.562 36.7793 83.438 37.7385 83.7663 40.0407C83.0159 40.0407 82.4062 40.0407 81.6558 40.0407C81.3744 39.1774 80.7177 38.7937 79.8266 38.7937C78.5603 38.7937 77.763 39.7529 77.763 41.1918C77.763 42.4388 78.5603 43.5419 79.8266 43.5419C80.7177 43.5419 81.4682 43.0623 81.7027 42.151C82.4062 42.151 83.0628 42.151 83.8132 42.151C83.4849 44.5491 81.6089 45.5083 79.8266 45.5083C77.7161 45.5083 75.5586 44.0695 75.5117 41.1438C75.5586 38.2181 77.7161 36.7793 79.8266 36.7793Z" fill="white"/>
<path d="M90.708 38.7935C89.4886 38.7935 88.832 38.7935 87.6125 38.7935V39.9925H90.4735C90.4735 40.664 90.4735 41.2875 90.4735 41.9589H87.6125C87.6125 42.4385 87.6125 42.9661 87.6125 43.4457C88.832 43.4457 89.5824 43.4457 90.8018 43.4457C90.8018 44.0692 90.8018 44.7407 90.8018 45.4122C88.832 45.4122 87.4249 45.4122 85.4551 45.4122C85.4551 42.5345 85.4551 39.7047 85.4551 36.875C87.378 36.875 88.7382 36.875 90.6611 36.875C90.708 37.4985 90.708 38.17 90.708 38.7935Z" fill="white"/>
<path d="M92.6777 45.4124C92.6777 42.5827 92.6777 39.705 92.6777 36.8752C93.8972 36.8752 95.1166 36.8752 96.3829 36.8752C100.37 36.8752 100.37 43.2541 96.3829 43.2541H94.8352V45.4604C94.0848 45.4124 93.3813 45.4124 92.6777 45.4124ZM96.336 38.7937C95.8201 38.7937 95.3042 38.7937 94.7883 38.7937C94.7883 39.5131 94.7883 40.5203 94.7883 41.2398H96.336C97.5086 41.2398 97.5555 38.8417 96.336 38.7937Z" fill="white"/>
<path d="M106.515 40.9528C107.171 41.2886 107.5 41.96 107.5 42.6794C107.5 44.1663 106.609 45.3653 104.873 45.3653H100.934V36.8281H104.498C105.952 36.8281 107.125 37.9792 107.125 39.466C107.171 39.9936 106.89 40.6171 106.515 40.9528ZM103.044 38.7946V40.1854H104.404C105.249 40.1854 105.249 38.7946 104.404 38.7946H103.044ZM103.044 42.008V43.4468H104.779C105.624 43.4468 105.624 42.008 104.779 42.008H103.044Z" fill="white"/>
<path d="M109.985 45.4124H109.234V36.8273C109.985 36.8273 110.688 36.8273 111.439 36.8273V40.9999L115.66 36.7793H116.457V45.3644C115.707 45.3644 115.003 45.3644 114.253 45.3644V41.1918L109.985 45.4124Z" fill="white"/>
<path d="M122.366 36.7793C124.101 36.7793 125.977 37.7385 126.305 40.0407C125.555 40.0407 124.945 40.0407 124.195 40.0407C123.913 39.1774 123.257 38.7937 122.366 38.7937C121.099 38.7937 120.302 39.7529 120.302 41.1918C120.302 42.4388 121.099 43.5419 122.366 43.5419C123.257 43.5419 124.007 43.0623 124.242 42.151C124.945 42.151 125.602 42.151 126.352 42.151C126.024 44.5491 124.148 45.5083 122.366 45.5083C120.255 45.5083 118.098 44.0695 118.051 41.1438C118.098 38.2181 120.208 36.7793 122.366 36.7793Z" fill="white"/>
<path d="M37.6623 35.965H17.2134C17.2134 36.2528 17.1665 36.4926 17.1665 36.7803C17.1665 42.5837 21.7628 47.2839 27.4379 47.2839C33.066 47.2839 37.7092 42.5837 37.7092 36.7803C37.7092 36.4926 37.6623 36.2528 37.6623 35.965ZM27.4379 44.6461C25.5618 44.6461 24.061 43.1113 24.061 41.1928C24.061 39.2744 25.5618 37.7396 27.4379 37.7396C29.3139 37.7396 30.8148 39.2744 30.8148 41.1928C30.8148 43.0633 29.3139 44.6461 27.4379 44.6461ZM37.6623 35.965H17.2134C17.2134 36.2528 17.1665 36.4926 17.1665 36.7803C17.1665 42.5837 21.7628 47.2839 27.4379 47.2839C33.066 47.2839 37.7092 42.5837 37.7092 36.7803C37.7092 36.4926 37.6623 36.2528 37.6623 35.965ZM27.4379 44.6461C25.5618 44.6461 24.061 43.1113 24.061 41.1928C24.061 39.2744 25.5618 37.7396 27.4379 37.7396C29.3139 37.7396 30.8148 39.2744 30.8148 41.1928C30.8148 43.0633 29.3139 44.6461 27.4379 44.6461ZM37.6623 35.965H17.2134C17.2134 36.2528 17.1665 36.4926 17.1665 36.7803C17.1665 42.5837 21.7628 47.2839 27.4379 47.2839C33.066 47.2839 37.7092 42.5837 37.7092 36.7803C37.7092 36.4926 37.6623 36.2528 37.6623 35.965ZM27.4379 44.6461C25.5618 44.6461 24.061 43.1113 24.061 41.1928C24.061 39.2744 25.5618 37.7396 27.4379 37.7396C29.3139 37.7396 30.8148 39.2744 30.8148 41.1928C30.8148 43.0633 29.3139 44.6461 27.4379 44.6461ZM37.6623 35.965H17.2134C17.2134 36.2528 17.1665 36.4926 17.1665 36.7803C17.1665 42.5837 21.7628 47.2839 27.4379 47.2839C33.066 47.2839 37.7092 42.5837 37.7092 36.7803C37.7092 36.4926 37.6623 36.2528 37.6623 35.965ZM27.4379 44.6461C25.5618 44.6461 24.061 43.1113 24.061 41.1928C24.061 39.2744 25.5618 37.7396 27.4379 37.7396C29.3139 37.7396 30.8148 39.2744 30.8148 41.1928C30.8148 43.0633 29.3139 44.6461 27.4379 44.6461ZM52.2955 11.6485C52.2486 11.2648 51.8734 10.977 51.4982 11.025C42.8684 12.7516 36.0208 9.87388 29.3139 4.40625V12.8475C36.5367 13.9027 42.6808 21.001 43.3843 30.3055L43.4312 31.9362H11.3977C11.3977 31.4086 11.3977 30.8811 11.4446 30.3055C12.195 21.0489 18.1983 13.9986 25.3742 12.8475C25.468 12.8475 25.6087 12.7995 25.7025 12.7995V4.40625C19.1364 9.77795 12.2419 12.7516 3.51828 11.025C3.14307 10.929 2.76786 11.2168 2.76786 11.6485C1.45463 21.3847 2.58026 32.0801 9.00572 41.9602C13.7427 49.2504 20.2151 54.1904 27.5317 58.6029C37.1933 52.7995 45.2603 45.8451 49.5283 35.2935C52.7176 27.4278 52.999 19.9458 52.2955 11.6485ZM40.195 35.965C40.195 36.2528 40.2419 36.4926 40.2419 36.7803C40.2419 43.9746 34.52 49.8259 27.4848 49.8259C20.4496 49.8259 14.7277 43.9746 14.7277 36.7803C14.7277 36.4926 14.7277 36.2528 14.7746 35.965H11.3977V32.9434H43.525V35.965H40.195ZM17.2134 35.965C17.2134 36.2528 17.1665 36.4926 17.1665 36.7803C17.1665 42.5837 21.7628 47.2839 27.4379 47.2839C33.066 47.2839 37.7092 42.5837 37.7092 36.7803C37.7092 36.4926 37.7092 36.2528 37.6623 35.965H17.2134ZM27.4379 44.6461C25.5618 44.6461 24.061 43.1113 24.061 41.1928C24.061 39.2744 25.5618 37.7396 27.4379 37.7396C29.3139 37.7396 30.8148 39.2744 30.8148 41.1928C30.8148 43.0633 29.3139 44.6461 27.4379 44.6461ZM37.6623 35.965H17.2134C17.2134 36.2528 17.1665 36.4926 17.1665 36.7803C17.1665 42.5837 21.7628 47.2839 27.4379 47.2839C33.066 47.2839 37.7092 42.5837 37.7092 36.7803C37.7092 36.4926 37.6623 36.2528 37.6623 35.965ZM27.4379 44.6461C25.5618 44.6461 24.061 43.1113 24.061 41.1928C24.061 39.2744 25.5618 37.7396 27.4379 37.7396C29.3139 37.7396 30.8148 39.2744 30.8148 41.1928C30.8148 43.0633 29.3139 44.6461 27.4379 44.6461ZM37.6623 35.965H17.2134C17.2134 36.2528 17.1665 36.4926 17.1665 36.7803C17.1665 42.5837 21.7628 47.2839 27.4379 47.2839C33.066 47.2839 37.7092 42.5837 37.7092 36.7803C37.7092 36.4926 37.6623 36.2528 37.6623 35.965ZM27.4379 44.6461C25.5618 44.6461 24.061 43.1113 24.061 41.1928C24.061 39.2744 25.5618 37.7396 27.4379 37.7396C29.3139 37.7396 30.8148 39.2744 30.8148 41.1928C30.8148 43.0633 29.3139 44.6461 27.4379 44.6461Z" fill="white"/>
<path d="M54.5468 11.4079C54.4061 9.87317 53.1398 8.67413 51.639 8.67413C51.4514 8.67413 51.2638 8.67413 51.0761 8.72209C43.6189 10.2089 37.3341 8.19452 29.8299 1.81562C28.5636 0.712502 26.4999 0.712502 25.2336 1.81562C19.2772 6.89955 14.0711 9.20171 8.39608 9.20171C6.98905 9.20171 5.48821 9.05783 3.94047 8.77006C2.20513 8.38636 0.65739 9.68133 0.516686 11.36C-1.07795 23.3024 1.1733 34.0458 7.12975 43.2545C11.4916 49.9211 17.2604 55.149 26.4061 60.6166L26.5468 60.7125C26.8751 60.9043 27.2035 61.0003 27.5787 61.0003C27.9539 61.0003 28.2822 60.9043 28.6105 60.7125L28.7512 60.6166C40.6641 53.4703 47.7462 45.9403 51.7328 36.1561C55.2972 27.1873 55.1565 18.6022 54.5468 11.4079ZM50.7947 35.8204C46.9019 45.3648 39.9606 52.7509 28.1884 59.8012L28.0477 59.8972C27.8601 59.9931 27.6725 60.041 27.4849 60.041C27.2973 60.041 27.1096 59.9931 26.922 59.8972L26.7813 59.8012C17.7763 54.3816 12.1013 49.2976 7.83327 42.7269C2.01752 33.7101 -0.13993 23.2065 1.40781 11.4559C1.50161 10.4008 2.34583 9.63337 3.42456 9.63337C3.56526 9.63337 3.65906 9.63337 3.79977 9.68133C5.34751 9.9691 6.89525 10.1609 8.39608 10.1609C14.3056 10.1609 19.6524 7.81082 25.7964 2.58301C26.7344 1.76766 28.2822 1.76766 29.2671 2.58301C35.4112 7.76286 40.8048 10.113 46.6674 10.113C48.1683 10.113 49.716 9.9691 51.2638 9.63337C52.3894 9.39356 53.5619 10.3048 53.6557 11.4559C54.2654 18.5542 54.3592 26.9955 50.7947 35.8204Z" fill="white"/>
</svg>
